<svg width="32" height="32" viewBox="0 0 32 32" fill="none" xmlns="http://www.w3.org/2000/svg">
<g clip-path="url(#clip0_1_5)">
<mask id="mask0_1_5" style="mask-type:luminance" maskUnits="userSpaceOnUse" x="0" y="0" width="32" height="32">
<path d="M0 0H32V32H0V0Z" fill="white"/>
</mask>
<g mask="url(#mask0_1_5)">
<path d="M23.6095 29.724C23.7368 29.847 23.8384 29.9941 23.9083 30.1568C23.9782 30.3194 24.0149 30.4944 24.0165 30.6714C24.018 30.8485 23.9843 31.024 23.9172 31.1879C23.8502 31.3518 23.7512 31.5006 23.626 31.6258C23.5008 31.751 23.3519 31.85 23.1881 31.9171C23.0242 31.9841 22.8486 32.0178 22.6716 32.0163C22.4946 32.0148 22.3196 31.978 22.1569 31.9081C21.9943 31.8382 21.8471 31.7367 21.7241 31.6093L10.8281 20.7133C9.58 19.4623 8.879 17.7672 8.879 16C8.879 14.2328 9.58 12.5377 10.8281 11.2866L21.7241 0.39064C21.9756 0.147762 22.3124 0.0133699 22.662 0.0164078C23.0116 0.0194457 23.346 0.159671 23.5932 0.406882C23.8404 0.654093 23.9807 0.988509 23.9837 1.3381C23.9867 1.6877 23.8524 2.0245 23.6095 2.27597L12.7135 13.172C11.9636 13.9221 11.5423 14.9393 11.5423 16C11.5423 17.0606 11.9636 18.0779 12.7135 18.828L23.6095 29.724Z" fill="#2A6CEA"/>
</g>
</g>
<defs>
<clipPath id="clip0_1_5">
<rect width="32" height="32" fill="white" transform="matrix(-1 0 0 1 32 0)"/>
</clipPath>
</defs>
</svg>
