<svg width="32" height="32" viewBox="0 0 32 32" fill="none" xmlns="http://www.w3.org/2000/svg">
<path d="M8.161 2.27597C7.9182 2.0245 7.7838 1.6877 7.7868 1.3381C7.7898 0.988509 7.9301 0.654093 8.1773 0.406882C8.4245 0.159671 8.7589 0.0194457 9.1085 0.0164078C9.4581 0.0133699 9.7949 0.147762 10.0464 0.39064L20.9424 11.2866C22.1922 12.5368 22.8943 14.2322 22.8943 16C22.8943 17.7677 22.1922 19.4631 20.9424 20.7133L10.0464 31.6093C9.7949 31.8522 9.4581 31.9866 9.1085 31.9835C8.7589 31.9805 8.4245 31.8403 8.1773 31.5931C7.9301 31.3459 7.7898 31.0114 7.7868 30.6618C7.7838 30.3122 7.9182 29.9754 8.161 29.724L19.057 18.828C19.8069 18.0779 20.2282 17.0606 20.2282 16C20.2282 14.9393 19.8069 13.9221 19.057 13.172L8.161 2.27597Z" fill="#C2C8CD"/>
</svg>
